<?xml version="1.0" standalone="no"?>
<!DOCTYPE svg PUBLIC "-//W3C//DTD SVG 20010904//EN"
 "http://www.w3.org/TR/2001/REC-SVG-20010904/DTD/svg10.dtd">
<svg version="1.0" xmlns="http://www.w3.org/2000/svg"
 width="100.000000pt" height="100.000000pt" viewBox="0 0 100.000000 100.000000"
 preserveAspectRatio="xMidYMid meet">
<metadata>
Created by potrace 1.14, written by Peter Selinger 2001-2017
</metadata>
<g transform="translate(0.000000,100.000000) scale(0.100000,-0.100000)"
fill="#000000" stroke="none">
<path d="M392 993 c-18 -3 -30 -8 -27 -14 3 -5 -1 -6 -9 -3 -25 9 -136 -48
-192 -99 -104 -94 -163 -226 -164 -362 0 -152 44 -259 150 -365 199 -201 519
-198 708 5 31 33 62 72 69 85 37 77 54 125 50 141 -3 11 -1 17 4 13 5 -3 9 3
9 13 1 10 3 45 7 77 4 42 2 57 -6 52 -6 -4 -11 -2 -11 3 0 6 5 11 11 11 6 0 7
5 2 13 -4 6 -6 19 -5 29 2 10 -8 20 -25 27 -22 9 -23 10 -5 7 18 -3 22 -1 18
11 -3 8 -6 19 -6 24 0 6 -5 7 -12 3 -8 -5 -9 -2 -5 10 6 14 3 17 -8 12 -11 -4
-14 -2 -9 6 5 8 2 9 -9 5 -10 -4 -17 -2 -17 4 0 6 9 9 20 6 24 -6 27 11 4 20
-11 4 -22 -1 -30 -12 -8 -10 -14 -14 -14 -7 0 7 9 17 20 24 11 7 20 15 20 18
0 3 -51 6 -112 6 -88 -1 -112 -4 -110 -14 1 -8 -2 -11 -8 -7 -6 3 -8 10 -5 15
3 4 0 10 -7 12 -8 3 -11 33 -11 93 0 101 -7 114 -77 132 -23 6 -171 10 -208 6z
m114 -49 c1 -9 0 -13 -4 -10 -3 4 -7 14 -8 22 -1 9 0 13 4 10 3 -4 7 -14 8
-22z m148 -22 c3 -5 -1 -9 -9 -9 -8 0 -12 4 -9 9 3 4 7 8 9 8 2 0 6 -4 9 -8z
m-39 -22 c3 -6 -1 -7 -9 -4 -18 7 -21 14 -7 14 6 0 13 -4 16 -10z m50 -9 c3
-5 2 -12 -3 -15 -5 -3 -9 1 -9 9 0 17 3 19 12 6z m-123 -22 l46 -3 -5 -50 c-3
-28 -6 -53 -8 -54 -2 -2 -42 -3 -89 -3 l-86 1 0 -50 0 -50 90 0 90 0 0 -90 0
-90 50 0 50 0 0 90 c0 86 1 90 23 91 55 3 143 -3 151 -11 5 -5 15 -6 22 -3 8
3 14 0 14 -7 0 -6 -4 -8 -10 -5 -5 3 -10 -1 -10 -10 0 -9 3 -14 8 -11 4 2 7
-33 7 -79 0 -53 4 -81 10 -77 6 3 5 -1 -1 -9 -6 -8 -19 -39 -28 -69 -33 -104
-125 -195 -236 -236 -65 -23 -172 -20 -243 6 -254 95 -328 422 -138 610 31 31
74 64 96 75 41 19 135 45 146 39 3 -2 26 -4 51 -5z m113 -69 c-3 -5 -12 -10
-18 -10 -7 0 -6 4 3 10 19 12 23 12 15 0z m235 -60 c0 -5 -4 -10 -10 -10 -5 0
-10 5 -10 10 0 6 5 10 10 10 6 0 10 -4 10 -10z m-247 -15 c-3 -9 -8 -14 -10
-11 -3 3 -2 9 2 15 9 16 15 13 8 -4z m187 -3 c0 -5 -7 -9 -15 -9 -8 0 -12 4
-9 9 3 4 9 8 15 8 5 0 9 -4 9 -8z m0 -26 c0 -2 -8 -10 -17 -17 -16 -13 -17
-12 -4 4 13 16 21 21 21 13z m-120 -10 c0 -2 -7 -7 -16 -10 -8 -3 -12 -2 -9 4
6 10 25 14 25 6z m205 -14 c-3 -3 -11 0 -18 7 -9 10 -8 11 6 5 10 -3 15 -9 12
-12z m34 -25 c-2 -1 -15 -11 -29 -22 l-25 -20 19 23 c11 12 24 22 29 22 6 0 8
-1 6 -3z m-23 -72 c1 -8 -1 -17 -5 -19 -4 -3 -7 6 -7 19 0 25 8 25 12 0z m39
-3 c-3 -3 -11 0 -18 7 -9 10 -8 11 6 5 10 -3 15 -9 12 -12z m-25 -86 c0 -2 -8
-10 -17 -17 -16 -13 -17 -12 -4 4 13 16 21 21 21 13z"/>
</g>
</svg>
